# xmcd
#
# Track frame offsets: 
#        150
#        17673
#        49829
#        67613
#        81273
#        100618
#        115492
#        140506
#        153489
#        174637
#        193857
#        211056
#        231467
#        265759
#
# Disc length: 3754 seconds
#
# Revision: 10
# Processed by: cddbd v1.4PL0 Copyright (c) Steve Scherf et al.
# Submitted via: ExactAudioCopy v0.95a3
#
DISCID=bd0ea80e
DTITLE=Bob Marley and The Wailers - Legend
DYEAR=1900
DGENRE=Reggae
TTITLE0=Is This Love
TTITLE1=No Women No Cry
TTITLE2=Could You Be Loved
TTITLE3=Three Little Birds
TTITLE4=Buffalo Soldier
TTITLE5=Get Up Stand Up
TTITLE6=Stir It Up
TTITLE7=One Love - People Get Ready
TTITLE8=I Shot The Sheriff
TTITLE9=Waiting In Vain
TTITLE10=Redemption Song
TTITLE11=Satisfy My Soul
TTITLE12=Exodus
TTITLE13=Jamming
EXTD=
EXTT0=
EXTT1=
EXTT2=
EXTT3=
EXTT4=
EXTT5=
EXTT6=
EXTT7=
EXTT8=
EXTT9=
EXTT10=
EXTT11=
EXTT12=
EXTT13=
PLAYORDER=
